<?xml version="1.0" encoding="utf-8"?>
<!-- Generator: Adobe Illustrator 16.0.0, SVG Export Plug-In . SVG Version: 6.00 Build 0)  -->
<!DOCTYPE svg PUBLIC "-//W3C//DTD SVG 1.1//EN" "http://www.w3.org/Graphics/SVG/1.1/DTD/svg11.dtd">
<svg version="1.1" id="Layer_1" xmlns="http://www.w3.org/2000/svg" xmlns:xlink="http://www.w3.org/1999/xlink" x="0px" y="0px"
	 width="54px" height="68.918px" viewBox="0 0 54 68.918" enable-background="new 0 0 54 68.918" xml:space="preserve">
<g>
	<g>
		<path fill="#FFFFFF" d="M26.421,67.918c-0.34,0-0.617-0.016-0.721-0.031l-0.114-0.016l-0.107-0.042
			c-0.537-0.208-1.158-0.797-1.292-1.826c-0.088-0.678-0.195-2.567-0.199-2.647l-0.043-0.777l0.727-0.229l0.025-0.525l-0.864-1.661
			c-0.326-0.028-0.717-0.077-1.008-0.164l-0.514-0.153l-0.157-0.513c-0.127-0.417-0.848-3.357-1.021-4.063l-0.517-0.995
			c-1.311-1.377-9.159-9.627-9.627-10.166l-0.222-0.243c-2.868-3.109-5.273-6.5-7.15-10.076C0.291,27.45-0.189,16.13,3.933,12.168
			c0.64-1.438,2.47-4.513,6.971-6.527c0.833-0.816,2.809-2.406,5.812-2.736l0.152-0.072c0.913-0.44,2.612-1.259,4.17-1.259
			c0.438,0,0.84,0.064,1.204,0.192c0.604-0.268,1.685-0.646,2.965-0.646c0.716,0,1.404,0.118,2.054,0.352
			C28.015,1.158,28.818,1,29.656,1c1.223,0,2.259,0.343,2.88,0.646c0.313-0.062,0.736-0.123,1.241-0.123
			c1.403,0,2.749,0.449,4.001,1.334c0.807,0.138,3.08,0.667,5.102,2.452c1.858,0.501,2.629,1.175,5.037,3.72
			c0.671,0.772,1.861,2.223,2.328,3.049c0.826,0.665,2.916,3.054,2.744,10.111c-0.168,6.876-0.523,7.769-2.383,11.357l-0.433,0.839
			c-2.254,4.393-9.657,13.403-17.112,19.858c-0.192,0.26-0.399,0.553-0.522,0.73l-1.02,4.785l-0.567,0.17
			c-0.027,0.008-0.192,0.057-0.489,0.12c-0.151,0.72-0.371,1.733-0.512,2.381l-0.063,4.677l-0.616,0.25
			c-0.192,0.078-1.187,0.468-1.88,0.526C27.076,67.908,26.721,67.918,26.421,67.918z"/>
		<path fill="#FFFFFF" d="M29.656,2c1.285,0,2.332,0.444,2.729,0.704c0.186-0.042,0.688-0.181,1.393-0.181
			c0.934,0,2.226,0.245,3.611,1.287c0.409,0.048,2.911,0.457,5.003,2.405c1.732,0.434,2.273,0.83,4.799,3.5
			c1.19,1.371,2.165,2.706,2.273,3.031c0.325,0.18,2.707,2.021,2.526,9.418c-0.181,7.397-0.578,7.614-2.707,11.764
			c-2.129,4.149-9.31,13.026-16.959,19.629c-0.325,0.433-0.722,1.011-0.722,1.011l-0.938,4.402c0,0-0.361,0.108-1.047,0.217
			c-0.144,0.757-0.782,3.657-0.782,3.657l0.108,0.036l-0.048,3.549c0,0-1.011,0.409-1.588,0.457
			c-0.289,0.024-0.614,0.033-0.887,0.033c-0.274,0-0.497-0.009-0.581-0.021c-0.216-0.084-0.577-0.373-0.662-1.022
			c-0.084-0.649-0.192-2.574-0.192-2.574l0.649-0.204l0.073-1.492l-1.251-2.406c0,0-0.902-0.023-1.347-0.156
			c-0.132-0.433-1.035-4.125-1.035-4.125l-0.637-1.227c0,0-9.214-9.683-9.695-10.235c-0.481-0.554-4.162-4.258-7.241-10.128
			c-3.079-5.87-3.68-17.08,0.265-20.568c0.457-1.106,2.117-4.282,6.712-6.279c0.77-0.793,2.622-2.333,5.509-2.598
			c0.688-0.316,2.527-1.309,4.049-1.309c0.446,0,0.865,0.085,1.22,0.298c0.267-0.15,1.462-0.752,2.949-0.752
			c0.654,0,1.365,0.117,2.079,0.44C28.101,2.146,28.918,2,29.656,2 M29.656,0c-0.839,0-1.651,0.137-2.422,0.41
			c-0.649-0.193-1.328-0.291-2.028-0.291c-1.239,0-2.301,0.302-3.025,0.586c-0.359-0.088-0.741-0.132-1.144-0.132
			c-1.785,0-3.617,0.882-4.602,1.357c-2.994,0.374-5.02,1.843-6.103,2.872C5.817,6.875,3.854,9.98,3.1,11.585
			c-2.754,2.791-3.128,7.787-3.099,10.586c0.046,4.396,1.067,8.915,2.73,12.085c1.917,3.654,4.374,7.116,7.301,10.29
			c0.092,0.1,0.161,0.173,0.202,0.22c0.469,0.539,7.651,8.091,9.561,10.097l0.396,0.762c0.263,1.073,0.88,3.583,1.008,4.001
			l0.313,1.025l1.027,0.307c0.201,0.06,0.426,0.104,0.653,0.139l0.299,0.576l-0.588,0.185l0.088,1.554
			c0.011,0.205,0.115,2.018,0.206,2.718c0.19,1.464,1.117,2.318,1.921,2.63l0.214,0.083l0.228,0.032
			c0.071,0.01,0.288,0.041,0.862,0.041c0.262,0,0.657-0.007,1.054-0.04c0.815-0.068,1.867-0.473,2.17-0.596l1.232-0.498l0.018-1.329
			l0.048-3.549l0.005-0.363c0.103-0.473,0.24-1.104,0.363-1.68l1.062-0.319l0.247-1.158l0.854-4.007
			c0.095-0.135,0.211-0.298,0.326-0.455c7.755-6.732,14.984-15.642,17.263-20.084l0.431-0.835c1.912-3.688,2.323-4.716,2.496-11.793
			c0.172-7.053-1.866-9.818-2.975-10.795c-0.642-1.06-1.879-2.514-2.313-3.014l-0.028-0.032l-0.029-0.031
			c-2.438-2.578-3.347-3.377-5.279-3.936c-1.993-1.682-4.175-2.288-5.193-2.491c-1.363-0.912-2.872-1.392-4.395-1.392
			c-0.43,0-0.806,0.038-1.109,0.084C31.89,0.277,30.829,0,29.656,0L29.656,0z"/>
	</g>
	<g>
		<defs>
			<path id="SVGID_1_" d="M42.392,6.215c1.732,0.434,2.273,0.83,4.799,3.5c1.19,1.371,2.165,2.706,2.273,3.031
				c0.325,0.18,2.707,2.021,2.526,9.418c-0.181,7.397-0.578,7.614-2.707,11.764c-2.129,4.149-9.31,13.026-16.959,19.629
				c-0.325,0.433-0.722,1.011-0.722,1.011l-0.938,4.402c0,0-0.361,0.108-1.047,0.217c-0.144,0.757-0.782,3.657-0.782,3.657
				l0.108,0.036l-0.048,3.549c0,0-1.011,0.409-1.588,0.457c-0.578,0.048-1.299,0.036-1.468,0.012
				c-0.216-0.084-0.577-0.373-0.662-1.022c-0.084-0.649-0.192-2.574-0.192-2.574l0.649-0.204l0.073-1.492l-1.251-2.406
				c0,0-0.902-0.023-1.347-0.156c-0.132-0.433-1.035-4.125-1.035-4.125l-0.637-1.227c0,0-9.214-9.683-9.695-10.235
				c-0.481-0.554-4.162-4.258-7.241-10.128c-3.079-5.87-3.68-17.08,0.265-20.568c0.457-1.106,2.117-4.282,6.712-6.279
				c0.77-0.793,2.622-2.333,5.509-2.598c0.89-0.409,3.705-1.949,5.269-1.011c0.385-0.216,2.694-1.371,5.028-0.312
				c2.237-1.13,4.474-0.265,5.1,0.145c0.433-0.097,2.574-0.722,5.004,1.106C37.797,3.858,40.299,4.267,42.392,6.215z"/>
		</defs>
		<clipPath id="SVGID_2_">
			<use xlink:href="#SVGID_1_"  overflow="visible"/>
		</clipPath>
		<g transform="matrix(1 0 0 1 0 1.192093e-07)" clip-path="url(#SVGID_2_)">
			
				<image overflow="visible" width="1486" height="1912" xlink:href="8E1AC4D96CD7AA5D.jpg"  transform="matrix(0.0346 0 0 0.0346 1.3281 1.2358)">
			</image>
		</g>
	</g>
</g>
</svg>
