<?xml version="1.0" encoding="utf-8"?>
<!-- Generator: Adobe Illustrator 16.0.0, SVG Export Plug-In . SVG Version: 6.00 Build 0)  -->
<!DOCTYPE svg PUBLIC "-//W3C//DTD SVG 1.1//EN" "http://www.w3.org/Graphics/SVG/1.1/DTD/svg11.dtd">
<svg version="1.1" id="Layer_1" xmlns="http://www.w3.org/2000/svg" xmlns:xlink="http://www.w3.org/1999/xlink" x="0px" y="0px"
	 width="48.095px" height="20px" viewBox="0 0 48.095 20" enable-background="new 0 0 48.095 20" xml:space="preserve">
<g>
	<g>
		<g>
			<g>
				<path d="M15.471,17.393c-6.315,0-11.437-3.31-11.437-7.393c0-4.081,5.121-7.392,11.437-7.392c3.495,0,6.621,1.015,8.72,2.612
					l3.096-1.674C24.447,1.378,20.209,0,15.471,0C6.927,0,0,4.478,0,10c0,5.523,6.927,10,15.471,10
					c4.784,0,9.058-1.403,11.896-3.607l-3.098-1.676C22.171,16.351,19.011,17.393,15.471,17.393z"/>
			</g>
			<g>
				<rect x="14.27" y="8.535" width="2.419" height="2.932"/>
			</g>
			<g>
				<path d="M6.492,10.001c0,3.205,4.019,5.803,8.979,5.803c2.784,0,5.268-0.82,6.915-2.104l-2.799-1.514
					c-0.978,0.768-2.458,1.259-4.116,1.259c-2.942,0-5.327-1.542-5.327-3.444c0-1.901,2.385-3.442,5.327-3.442
					c1.613,0,3.059,0.462,4.036,1.196l2.801-1.515c-1.647-1.249-4.099-2.042-6.837-2.042C10.511,4.197,6.492,6.796,6.492,10.001z"/>
			</g>
		</g>
	</g>
	<g>
		<path d="M24.162,10.834l0.329-0.159c0.232,0.341,0.499,0.513,0.802,0.513c0.131,0,0.251-0.025,0.365-0.073
			s0.201-0.113,0.261-0.194c0.059-0.081,0.089-0.168,0.089-0.26c0-0.104-0.044-0.206-0.131-0.306
			c-0.121-0.137-0.342-0.303-0.662-0.496c-0.323-0.196-0.524-0.337-0.603-0.424c-0.137-0.146-0.206-0.305-0.206-0.474
			c0-0.135,0.041-0.257,0.121-0.369c0.081-0.11,0.195-0.197,0.341-0.262c0.146-0.063,0.307-0.095,0.478-0.095
			c0.184,0,0.354,0.035,0.512,0.108c0.159,0.071,0.327,0.204,0.504,0.397l-0.315,0.191c-0.146-0.153-0.269-0.256-0.372-0.305
			c-0.103-0.05-0.214-0.074-0.334-0.074c-0.156,0-0.284,0.038-0.383,0.113c-0.099,0.077-0.147,0.17-0.147,0.281
			c0,0.066,0.018,0.133,0.053,0.196c0.035,0.062,0.099,0.131,0.191,0.205c0.051,0.04,0.217,0.144,0.499,0.31
			c0.335,0.199,0.563,0.375,0.688,0.528c0.125,0.155,0.188,0.311,0.188,0.467c0,0.225-0.106,0.42-0.319,0.586
			c-0.213,0.165-0.473,0.249-0.777,0.249c-0.235,0-0.449-0.051-0.639-0.151C24.501,11.237,24.324,11.069,24.162,10.834z"/>
		<path d="M27.402,8.617V8.312h2.118v0.305h-0.862v2.794h-0.395V8.617H27.402z"/>
		<path d="M30.637,8.312h0.389v1.869c0,0.223,0.005,0.361,0.016,0.415c0.02,0.122,0.063,0.225,0.134,0.307s0.179,0.151,0.324,0.206
			c0.146,0.056,0.292,0.084,0.44,0.084c0.128,0,0.251-0.022,0.368-0.066c0.117-0.043,0.216-0.103,0.295-0.181
			c0.078-0.077,0.136-0.17,0.174-0.28c0.025-0.079,0.04-0.239,0.04-0.484V8.312h0.388v1.871c0,0.275-0.034,0.5-0.103,0.67
			c-0.067,0.171-0.202,0.319-0.405,0.445c-0.203,0.127-0.448,0.19-0.736,0.19c-0.313,0-0.581-0.061-0.804-0.18
			c-0.224-0.119-0.373-0.277-0.448-0.474c-0.048-0.121-0.071-0.34-0.071-0.652V8.312z"/>
		<path d="M34.692,11.411V8.312h0.804c0.578,0,0.999,0.037,1.261,0.112c0.376,0.105,0.669,0.287,0.881,0.547
			c0.211,0.26,0.316,0.569,0.316,0.929c0,0.312-0.083,0.584-0.251,0.819c-0.168,0.236-0.385,0.41-0.653,0.522
			c-0.268,0.113-0.642,0.169-1.124,0.169H34.692z M35.063,11.118h0.447c0.537,0,0.908-0.027,1.115-0.08
			c0.292-0.076,0.521-0.213,0.688-0.41c0.168-0.195,0.251-0.437,0.251-0.722c0-0.298-0.092-0.553-0.272-0.766
			c-0.181-0.211-0.434-0.357-0.756-0.436c-0.242-0.059-0.643-0.088-1.199-0.088h-0.273V11.118z"/>
		<path d="M39.189,8.312h0.389v3.099h-0.389V8.312z"/>
		<path d="M42.85,8.235c0.586,0,1.078,0.156,1.473,0.47c0.396,0.312,0.593,0.698,0.593,1.155c0,0.454-0.197,0.839-0.592,1.154
			s-0.875,0.475-1.442,0.475c-0.575,0-1.06-0.157-1.454-0.473c-0.396-0.314-0.593-0.694-0.593-1.141c0-0.299,0.089-0.575,0.27-0.828
			c0.18-0.254,0.425-0.453,0.736-0.597C42.151,8.307,42.486,8.235,42.85,8.235z M42.866,8.537c-0.287,0-0.558,0.059-0.813,0.179
			c-0.257,0.119-0.457,0.28-0.601,0.482c-0.145,0.2-0.216,0.428-0.216,0.676c0,0.368,0.158,0.679,0.478,0.933
			c0.318,0.254,0.702,0.381,1.152,0.381c0.301,0,0.579-0.059,0.834-0.175c0.256-0.118,0.455-0.276,0.598-0.479
			c0.143-0.202,0.215-0.426,0.215-0.674c0-0.245-0.072-0.468-0.215-0.666c-0.143-0.201-0.345-0.358-0.604-0.478
			C43.434,8.596,43.157,8.537,42.866,8.537z"/>
		<path d="M45.83,10.834l0.328-0.159c0.231,0.341,0.499,0.513,0.802,0.513c0.13,0,0.252-0.025,0.365-0.073
			c0.114-0.048,0.201-0.113,0.26-0.194c0.061-0.081,0.091-0.168,0.091-0.26c0-0.104-0.045-0.206-0.132-0.306
			c-0.121-0.137-0.342-0.303-0.663-0.496c-0.322-0.196-0.522-0.337-0.602-0.424c-0.138-0.146-0.205-0.305-0.205-0.474
			c0-0.135,0.04-0.257,0.121-0.369c0.081-0.11,0.193-0.197,0.34-0.262c0.147-0.063,0.306-0.095,0.479-0.095
			c0.182,0,0.352,0.035,0.512,0.108c0.158,0.071,0.326,0.204,0.504,0.397l-0.317,0.191c-0.145-0.153-0.268-0.256-0.371-0.305
			c-0.103-0.05-0.214-0.074-0.335-0.074c-0.154,0-0.282,0.038-0.381,0.113c-0.099,0.077-0.148,0.17-0.148,0.281
			c0,0.066,0.018,0.133,0.052,0.196c0.035,0.062,0.1,0.131,0.192,0.205c0.051,0.04,0.218,0.144,0.499,0.31
			c0.335,0.199,0.563,0.375,0.688,0.528c0.124,0.155,0.187,0.311,0.187,0.467c0,0.225-0.106,0.42-0.319,0.586
			c-0.214,0.165-0.472,0.249-0.777,0.249c-0.235,0-0.448-0.051-0.64-0.151S45.99,11.069,45.83,10.834z"/>
	</g>
	<g>
		<defs>
			<path id="SVGID_1_" d="M6.492,10.001c0,3.205,4.019,5.803,8.979,5.803c2.784,0,5.268-0.82,6.915-2.104l-2.799-1.514
				c-0.978,0.768-2.458,1.259-4.116,1.259c-2.942,0-5.327-1.542-5.327-3.444c0-1.901,2.385-3.442,5.327-3.442
				c1.613,0,3.059,0.462,4.036,1.196l2.801-1.515c-1.647-1.249-4.099-2.042-6.837-2.042C10.511,4.197,6.492,6.796,6.492,10.001z"/>
		</defs>
		<clipPath id="SVGID_2_">
			<use xlink:href="#SVGID_1_"  overflow="visible"/>
		</clipPath>
	</g>
	<g>
		<defs>
			<rect id="SVGID_3_" x="14.27" y="8.535" width="2.419" height="2.932"/>
		</defs>
		<clipPath id="SVGID_4_">
			<use xlink:href="#SVGID_3_"  overflow="visible"/>
		</clipPath>
	</g>
	<g>
		<defs>
			<path id="SVGID_5_" d="M15.471,17.393c-6.315,0-11.437-3.31-11.437-7.392s5.121-7.393,11.437-7.393
				c3.495,0,6.621,1.015,8.72,2.612l3.096-1.674C24.449,1.378,20.209,0,15.471,0C6.927,0,0,4.478,0,10.001
				C0,15.523,6.927,20,15.471,20c4.784,0,9.058-1.402,11.896-3.607l-3.098-1.675C22.171,16.352,19.011,17.393,15.471,17.393z"/>
		</defs>
		<clipPath id="SVGID_6_">
			<use xlink:href="#SVGID_5_"  overflow="visible"/>
		</clipPath>
	</g>
</g>
</svg>
