<?xml version="1.0" encoding="utf-8"?>
<!-- Generator: Adobe Illustrator 16.0.0, SVG Export Plug-In . SVG Version: 6.00 Build 0)  -->
<!DOCTYPE svg PUBLIC "-//W3C//DTD SVG 1.1//EN" "http://www.w3.org/Graphics/SVG/1.1/DTD/svg11.dtd">
<svg version="1.1" id="Front" xmlns="http://www.w3.org/2000/svg" xmlns:xlink="http://www.w3.org/1999/xlink" x="0px" y="0px"
	 width="37.603px" height="26px" viewBox="0 0 37.603 26" enable-background="new 0 0 37.603 26" xml:space="preserve">
<path fill="#FFFFFF" d="M37.603,4.027c0,1.178-0.955,2.132-2.132,2.132H2.132C0.954,6.159,0,5.205,0,4.027V2.133
	C0,0.954,0.954,0,2.132,0h33.339c1.177,0,2.132,0.954,2.132,2.133V4.027z"/>
<path fill="#FFFFFF" d="M37.603,13.946c0,1.179-0.955,2.133-2.132,2.133H2.132C0.954,16.079,0,15.125,0,13.946v-1.895
	C0,10.874,0.954,9.92,2.132,9.92h33.339c1.177,0,2.132,0.954,2.132,2.132V13.946z"/>
<path fill="#FFFFFF" d="M37.603,23.867c0,1.178-0.955,2.133-2.132,2.133H2.132C0.954,26,0,25.045,0,23.867v-1.896
	c0-1.178,0.954-2.132,2.132-2.132h33.339c1.177,0,2.132,0.954,2.132,2.132V23.867z"/>
</svg>
