<?xml version="1.0" encoding="utf-8"?>
<!-- Generator: Adobe Illustrator 16.0.0, SVG Export Plug-In . SVG Version: 6.00 Build 0)  -->
<!DOCTYPE svg PUBLIC "-//W3C//DTD SVG 1.1//EN" "http://www.w3.org/Graphics/SVG/1.1/DTD/svg11.dtd">
<svg version="1.1" id="Layer_1" xmlns="http://www.w3.org/2000/svg" xmlns:xlink="http://www.w3.org/1999/xlink" x="0px" y="0px"
	 width="45.092px" height="52px" viewBox="0 0 45.092 52" enable-background="new 0 0 45.092 52" xml:space="preserve">
<g>
	<path fill="#D0202D" d="M0,0c0,14.232,0,28.464,0,42.697c0.062,0.004,0.124,0.011,0.186,0.011c13.545,0,27.09,0,40.636,0.001
		c0.057,0,0.113,0,0.194,0c0-0.086,0-0.161,0-0.237c0-14.084,0-28.169,0-42.253c0-0.072,0-0.146,0.001-0.218C27.345,0,13.672,0,0,0z
		 M17.078,37.153c-3.762,0-7.515,0-11.28,0c0-10.72,0-21.441,0-32.175c3.756,0,7.512,0,11.28,0
		C17.078,15.709,17.078,26.427,17.078,37.153z M21.73,5.14c0.253-0.012,0.509-0.033,0.765-0.034
		c0.846-0.004,1.691-0.022,2.535,0.004c1.122,0.033,2.236,0.141,3.314,0.488c1.301,0.419,2.337,1.18,3.064,2.344
		c0.465,0.744,0.952,1.477,1.197,2.336c0.208,0.727,0.354,1.463,0.394,2.22c0.088,1.694-0.343,3.242-1.243,4.68
		c-0.691,1.102-1.608,1.922-2.775,2.474c-0.768,0.362-1.582,0.56-2.421,0.673c-1.015,0.138-2.034,0.128-3.054,0.123
		c-0.59-0.003-1.179,0-1.776,0C21.73,15.368,21.73,10.262,21.73,5.14z M21.732,37.147c0-5.345,0-10.692,0-16.069
		c5.339,5.364,10.657,10.708,15.993,16.069C32.384,37.147,27.062,37.147,21.732,37.147z"/>
	<path fill-rule="evenodd" clip-rule="evenodd" fill="#D0202D" d="M1.562,48.977c0.418-0.029,0.827-0.044,1.232-0.09
		c0.412-0.048,0.815-0.149,1.068-0.519c0.262-0.383,0.348-0.817,0.259-1.272c-0.065-0.326-0.288-0.542-0.57-0.7
		c-0.385-0.213-0.807-0.301-1.235-0.325c-0.489-0.026-0.981,0-1.494,0c-0.027,1.96,0.027,3.912,0,5.888c-0.223,0-0.517,0-0.741,0
		c0-2.195,0-4.372,0-6.569c0.044-0.004,0.078,0,0.113,0c0.735,0.009,1.473-0.037,2.207,0c0.6,0.03,1.176,0.198,1.67,0.571
		c0.447,0.339,0.674,0.801,0.721,1.354c0.053,0.614-0.054,1.178-0.537,1.615c-0.287,0.26-0.631,0.411-0.997,0.517
		c-0.123,0.037-0.247,0.064-0.39,0.101c0.621,0.81,1.231,1.587,1.862,2.411c-0.315,0-0.598,0.005-0.88,0
		c-0.027,0-0.062,0.026-0.081,0c-0.733-0.965-1.464-1.977-2.194-2.944C1.566,49.004,1.565,48.988,1.562,48.977z"/>
	<path fill-rule="evenodd" clip-rule="evenodd" fill="#D0202D" d="M37.475,48.977c0.419-0.029,0.827-0.044,1.233-0.09
		c0.41-0.048,0.815-0.149,1.067-0.519c0.262-0.383,0.348-0.817,0.258-1.272c-0.064-0.326-0.288-0.542-0.569-0.7
		c-0.384-0.213-0.807-0.301-1.235-0.325c-0.489-0.026-0.981,0-1.494,0c-0.027,1.96,0.027,3.912,0,5.888c-0.222,0-0.518,0-0.742,0
		c0-2.195,0-4.372,0-6.569c0.044-0.004,0.08,0,0.114,0c0.736,0.009,1.473-0.037,2.207,0c0.599,0.03,1.177,0.198,1.669,0.571
		c0.449,0.339,0.676,0.801,0.723,1.354c0.053,0.614-0.056,1.178-0.538,1.615c-0.288,0.26-0.631,0.411-0.997,0.517
		c-0.122,0.037-0.247,0.064-0.389,0.101c0.62,0.81,1.23,1.587,1.862,2.411c-0.316,0-0.598,0.005-0.88,0
		c-0.028,0-0.063,0.026-0.083,0c-0.731-0.965-1.464-1.977-2.193-2.944C37.479,49.004,37.478,48.988,37.475,48.977z"/>
	<path fill-rule="evenodd" clip-rule="evenodd" fill="#D0202D" d="M43.071,42.868c0.138-0.009,0.271-0.013,0.404-0.026
		s0.266-0.043,0.349-0.15c0.086-0.111,0.113-0.236,0.084-0.368c-0.021-0.094-0.094-0.157-0.187-0.202
		c-0.125-0.062-0.264-0.087-0.402-0.094c-0.161-0.008-0.321,0-0.489,0c-0.009,0.567,0.009,1.131,0,1.703c-0.073,0-0.17,0-0.243,0
		c0-0.635,0-1.264,0-1.9c0.015-0.001,0.026,0,0.038,0c0.239,0.002,0.481-0.011,0.722,0c0.195,0.009,0.385,0.057,0.546,0.165
		c0.146,0.099,0.22,0.232,0.235,0.392c0.018,0.178-0.019,0.34-0.176,0.467c-0.095,0.075-0.207,0.118-0.326,0.15
		c-0.04,0.01-0.08,0.018-0.127,0.029c0.203,0.234,0.402,0.459,0.608,0.697c-0.103,0-0.195,0.001-0.287,0
		c-0.009,0-0.021,0.008-0.027,0c-0.239-0.28-0.479-0.572-0.718-0.852C43.073,42.875,43.073,42.871,43.071,42.868z"/>
	<path fill-rule="evenodd" clip-rule="evenodd" fill="#D0202D" d="M17.905,51.959c-0.266,0-0.51,0.012-0.752,0
		c-0.046-0.002-0.106,0.051-0.13,0c-0.292-0.645-0.581-1.397-0.863-2.046c-0.043-0.099-0.094-0.125-0.195-0.124
		c-0.989,0.003-1.98,0.004-2.97-0.001c-0.108,0-0.151,0.037-0.189,0.132c-0.259,0.647-0.527,1.392-0.787,2.04
		c-0.035,0.091-0.08,0.003-0.179,0c-0.253-0.007-0.506,0-0.775,0c0.022-0.061,0.034-0.084,0.054-0.125
		c0.992-2.115,2.977-6.403,2.977-6.403h0.187c0,0,0.321,0.008,0.481,0c0.098-0.005,0.186,0,0.186,0s0.91,2.053,1.365,3.049
		c0.509,1.114,1.017,2.228,1.525,3.341C17.858,51.864,17.875,51.886,17.905,51.959z M15.764,49.107
		c-0.422-0.947-0.835-1.877-1.264-2.843c-0.442,0.967-0.867,1.898-1.299,2.843C14.062,49.107,14.899,49.107,15.764,49.107z"/>
	<path fill-rule="evenodd" clip-rule="evenodd" fill="#D0202D" d="M6.269,45.384c1.256,0,2.493,0,3.74,0c0,0.219,0,0.428,0,0.657
		c-1.029,0-2.052,0-3.086,0c0,0.763,0,1.506,0,2.27c1.029,0,2.053,0,3.086,0c0,0.225,0,0.429,0,0.653c-1.026,0-2.05,0-3.086,0
		c0,0.789,0,1.559,0,2.347c1.021,0,2.045,0,3.082,0c0,0.227,0,0.429,0,0.648c-1.243,0-2.484,0-3.736,0
		C6.269,49.769,6.269,47.584,6.269,45.384z"/>
	<path fill-rule="evenodd" clip-rule="evenodd" fill="#D0202D" d="M25.147,51.959c-0.224,0-0.43,0-0.653,0c0-1.968,0-3.923,0-5.909
		c-0.192,0-0.366,0-0.541,0c-0.322,0-0.643-0.003-0.965,0.002c-0.11,0.002-0.146-0.034-0.141-0.142
		c0.008-0.17,0.001-0.34,0.001-0.523c1.285,0,2.558,0,3.84,0c0,0.215,0,0.429,0,0.659c-0.511,0-1.018,0-1.541,0
		C25.147,48.029,25.147,49.984,25.147,51.959z"/>
	<path fill-rule="evenodd" clip-rule="evenodd" fill="#D0202D" d="M19.85,51.32c0.966,0,1.901,0,2.85,0c0,0.221,0,0.419,0,0.639
		c-1.165,0-2.325,0-3.495,0c0-2.192,0-4.372,0-6.573c0.208,0,0.418,0,0.646,0C19.85,47.354,19.85,49.326,19.85,51.32z"/>
	<path fill="#D0202D" d="M31.338,44.875c-2.045,0-3.704,1.575-3.704,3.517c0,1.942,1.659,3.516,3.704,3.516s3.703-1.574,3.703-3.516
		C35.041,46.449,33.383,44.875,31.338,44.875z M31.338,51.113c-1.583,0-2.866-1.219-2.866-2.721c0-1.503,1.283-2.722,2.866-2.722
		s2.866,1.218,2.866,2.722C34.204,49.894,32.921,51.113,31.338,51.113z"/>
	<path fill-rule="evenodd" clip-rule="evenodd" fill="#D0202D" d="M43.201,40.954c-1.044,0-1.89,0.846-1.89,1.89
		s0.846,1.891,1.89,1.891s1.891-0.847,1.891-1.891S44.245,40.954,43.201,40.954z M43.201,44.501c-0.915,0-1.656-0.742-1.656-1.657
		c0-0.915,0.741-1.657,1.656-1.657s1.657,0.742,1.657,1.657C44.858,43.76,44.116,44.501,43.201,44.501z"/>
</g>
</svg>
