<?xml version="1.0" encoding="utf-8"?>
<!-- Generator: Adobe Illustrator 16.0.0, SVG Export Plug-In . SVG Version: 6.00 Build 0)  -->
<!DOCTYPE svg PUBLIC "-//W3C//DTD SVG 1.1//EN" "http://www.w3.org/Graphics/SVG/1.1/DTD/svg11.dtd">
<svg version="1.1" id="Layer_1" xmlns="http://www.w3.org/2000/svg" xmlns:xlink="http://www.w3.org/1999/xlink" x="0px" y="0px"
	 width="109.239px" height="30px" viewBox="0 0 109.239 30" enable-background="new 0 0 109.239 30" xml:space="preserve">
<g>
	<polyline fill="#00539F" points="26.728,30 21.412,30 42.438,0 47.826,0 26.728,30 	"/>
	<g>
		<polygon fill="none" points="77.272,16.167 80.814,16.167 77.272,11.259 		"/>
		<polygon fill="none" points="92.766,20.305 92.022,19.228 91.99,19.271 		"/>
		<path fill="none" d="M8.758,14.805c2.212,0.111,4.082-1.89,4.082-4.22c0-2.33-1.828-4.233-4.082-4.233
			c-1.647,0-2.744,0.132-3.465,0.1v8.335C6.09,14.822,7.228,14.728,8.758,14.805z"/>
		<path fill="none" d="M5.293,19.121v0.029l0.329-0.015C5.513,19.131,5.398,19.127,5.293,19.121z"/>
		<path fill="none" d="M106.726,3.51h-0.402v0.646h0.507c0.257,0,0.409-0.053,0.409-0.35C107.239,3.53,106.943,3.51,106.726,3.51z"
			/>
		<path fill="none" d="M106.738,2.488c-0.989,0-1.789,0.765-1.789,1.913c0,1.148,0.799,1.92,1.789,1.914v0.007
			c0.964,0,1.781-0.772,1.781-1.92C108.52,3.252,107.702,2.488,106.738,2.488z M107.214,5.74l-0.62-1.128h-0.271V5.74h-0.574V3.054
			h1.002c0.693,0,1.103,0.198,1.103,0.812c0,0.494-0.291,0.673-0.647,0.699l0.687,1.175H107.214z"/>
		<path fill="#CF0A2C" d="M18.572,6.448v16.84v0.193v1.347v3.157l-7.024-9.124l-0.546,0.025c3.947-0.942,6.873-4.296,6.873-8.302
			c0-4.734-2.832-8.66-7.867-8.66c-1.69,0-3.406-0.063-4.86,0H0v26.56h5.293V19.15v-0.029c0.105,0.006,0.22,0.01,0.329,0.014
			L5.293,19.15l7.506,9.334h5.773h0.385h2.31l3.656-5.004h-1.01l0.014-6.64h5.279l1.731-2.357v-2.165h-7l0.013-5.87h7.612V1.925
			H18.572V6.448z M5.293,14.787V6.452c0.721,0.032,1.818-0.1,3.465-0.1c2.253,0,4.082,1.904,4.082,4.233
			c0,2.33-1.869,4.331-4.082,4.22C7.228,14.728,6.09,14.822,5.293,14.787z"/>
		<polygon fill="#CF0A2C" points="31.563,28.484 31.563,24.803 28.676,28.484 		"/>
		<polygon fill="#CF0A2C" points="54.562,18.717 54.562,1.925 50.713,1.925 31.997,28.484 37.867,28.484 49.655,11.836 
			49.751,28.484 53.504,28.484 65.557,11.908 65.533,28.484 70.729,28.484 70.729,1.829 66.687,1.829 		"/>
		<path fill="#CF0A2C" d="M104.121,1.925h-5.485l-6.303,8.921l-6.207-8.921h-6.063l9.184,13.289l-1.638,2.318L77.272,2.751V2.719
			l-0.577-0.794h-4.234v26.56h4.812v-7.891h6.736l0.7,1.044l-4.838,6.847h5.678l1.916-2.739l1.836,2.739h5.967l-4.86-6.949
			l1.579-2.258l6.359,9.208h6.255L95.1,14.826L104.121,1.925z M77.272,16.167v-4.908l3.542,4.908H77.272z M92.766,20.305
			l-0.775-1.033l0.032-0.044L92.766,20.305z"/>
		<path fill="#CF0A2C" d="M106.738,1.906c-1.326,0-2.507,0.917-2.507,2.494s1.181,2.495,2.507,2.495c1.32,0,2.501-0.918,2.501-2.495
			S108.059,1.906,106.738,1.906z M106.738,6.321V6.314c-0.989,0.007-1.789-0.765-1.789-1.914c0-1.148,0.799-1.913,1.789-1.913
			c0.964,0,1.781,0.765,1.781,1.913C108.52,5.549,107.702,6.321,106.738,6.321z"/>
		<path fill="#CF0A2C" d="M107.854,3.866c0-0.614-0.41-0.812-1.103-0.812h-1.002V5.74h0.574V4.612h0.271l0.62,1.128h0.679
			l-0.687-1.175C107.563,4.539,107.854,4.36,107.854,3.866z M106.831,4.156h-0.507V3.51h0.402c0.217,0,0.514,0.02,0.514,0.296
			C107.239,4.103,107.088,4.156,106.831,4.156z"/>
	</g>
</g>
</svg>
